<?xml version="1.0" encoding="UTF-8" standalone="no"?>
<!-- Created with Inkscape (http://www.inkscape.org/) -->

<svg
   width="210mm"
   height="297mm"
   viewBox="0 0 210 297"
   version="1.1"
   id="svg1"
   xml:space="preserve"
   xmlns:inkscape="http://www.inkscape.org/namespaces/inkscape"
   xmlns:sodipodi="http://sodipodi.sourceforge.net/DTD/sodipodi-0.dtd"
   xmlns="http://www.w3.org/2000/svg"
   xmlns:svg="http://www.w3.org/2000/svg"><sodipodi:namedview
     id="namedview1"
     pagecolor="#ffffff"
     bordercolor="#000000"
     borderopacity="0.25"
     inkscape:showpageshadow="2"
     inkscape:pageopacity="0.0"
     inkscape:pagecheckerboard="0"
     inkscape:deskcolor="#d1d1d1"
     inkscape:document-units="mm"><inkscape:page
       x="0"
       y="0"
       width="210"
       height="297"
       id="page2"
       margin="0"
       bleed="0" /></sodipodi:namedview><defs
     id="defs1" /><g
     inkscape:label="Layer 1"
     inkscape:groupmode="layer"
     id="layer1"><path
       d="M 38.368442,98.519241 V 64.249402 h 13.258144 v 4.733521 h -7.9249 v 9.788323 h 7.496527 v 4.733522 h -7.496527 v 15.014473 z m 20.152069,0.32128 q -2.613075,0 -3.855357,-1.327956 -1.220863,-1.327956 -1.499305,-4.433661 -0.02142,-0.449791 -0.02142,-1.006676 0,-0.556885 0.02142,-0.985258 0.128512,-1.670655 0.728234,-2.891518 0.599722,-1.220863 1.842004,-2.163283 1.2637,-0.96384 3.362728,-1.820586 1.092351,-0.47121 2.141865,-0.813908 1.049514,-0.342699 2.163283,-0.663978 v -3.962451 q 0,-1.135188 -0.449791,-1.713492 -0.449792,-0.599722 -1.75633,-0.599722 -1.092351,0 -1.563561,0.492629 -0.47121,0.47121 -0.535466,1.649236 -0.02142,0.364117 -0.04284,1.092351 0,0.728234 0,1.477887 0.02142,0.749653 0.04284,1.199444 h -5.183313 q -0.02142,-0.428373 -0.04284,-1.41363 -0.02142,-1.006677 0,-1.75633 0.08568,-2.37747 0.813909,-3.855357 0.749653,-1.499305 2.356051,-2.206121 1.606399,-0.706815 4.305149,-0.706815 2.827262,0 4.43366,0.79249 1.606399,0.771071 2.270377,2.441726 0.663978,1.670655 0.663978,4.347986 l -0.02142,18.505713 h -5.354663 v -2.634494 h -0.706815 q -0.685397,1.499306 -1.58498,2.22754 -0.899583,0.728234 -2.527401,0.728234 z m 2.163284,-3.855357 q 0.921002,0 1.606399,-0.514047 0.685396,-0.535467 1.092351,-1.43505 v -6.725456 q -0.771072,0.192768 -1.499306,0.47121 -0.728234,0.278443 -1.435049,0.685397 -1.135189,0.621141 -1.542143,1.542143 -0.406954,0.921002 -0.47121,2.077609 -0.02142,0.406954 -0.02142,0.79249 0.02142,0.385536 0.04284,0.771071 0.107094,1.135189 0.663978,1.734911 0.578304,0.599722 1.563562,0.599722 z m 18.355794,3.919613 q -3.726845,0 -5.333243,-1.606399 -1.58498,-1.606398 -1.75633,-5.290406 -0.02142,-0.749653 0,-1.713492 0.02142,-0.963839 0.04284,-1.413631 h 4.690684 q -0.02142,1.156607 -0.02142,2.120446 0,0.942421 0.02142,1.563562 0.06426,1.285119 0.642559,1.799166 0.578304,0.514048 1.713492,0.514048 1.370794,0 1.970516,-0.514048 0.599722,-0.514047 0.599722,-1.799166 0.02142,-0.556885 0.02142,-0.771072 0,-0.214186 0,-0.406954 0,-0.192768 0,-0.706815 -0.02142,-0.942421 -0.342698,-1.499306 -0.32128,-0.578303 -1.178026,-0.835327 l -2.720169,-0.79249 q -1.799166,-0.535467 -3.041448,-1.349375 -1.220863,-0.813909 -1.863422,-2.056191 -0.64256,-1.2637 -0.663979,-3.148541 0,-0.428373 0,-0.79249 0,-0.385536 0.02142,-0.771072 0,-3.748263 1.670655,-5.376081 1.670654,-1.627817 5.783035,-1.627817 3.748264,0 5.311825,1.58498 1.563562,1.563562 1.734911,5.183313 0.02142,0.749653 0,1.734911 0,0.985258 -0.04284,1.435049 h -4.862034 q 0.02142,-0.492628 0.02142,-1.220863 0.02142,-0.749652 0,-1.456468 0,-0.728234 -0.02142,-1.092351 -0.04284,-1.178026 -0.514047,-1.649236 -0.471211,-0.492629 -1.627818,-0.492629 -1.242282,0 -1.73491,0.492629 -0.471211,0.47121 -0.514048,1.649236 -0.02142,0.556885 -0.04284,0.878165 0,0.299861 0,1.070932 0,1.049514 0.299861,1.734911 0.299861,0.685397 1.370793,0.985258 l 2.420308,0.621141 q 2.720168,0.663978 4.090962,2.141865 1.392212,1.477886 1.392212,4.369404 0,0.406954 -0.02142,0.878165 0,0.449791 0,0.856746 -0.02142,3.619752 -1.756329,5.204732 -1.713492,1.563561 -5.761617,1.563561 z m 19.748002,0 q -4.326567,0 -6.168571,-1.606399 -1.842004,-1.606398 -1.842004,-5.290406 V 76.886405 h -2.22754 v -4.069543 h 2.270377 v -7.282341 h 5.376081 v 7.282341 h 4.176636 v 4.069543 h -4.240892 v 15.721289 q 0,1.2637 0.492629,1.777748 0.514048,0.514048 2.184703,0.514048 0.535466,0 0.985258,-0.02142 0.449792,-0.02142 1.006672,-0.04284 v 3.855357 q -0.42837,0.128511 -0.942416,0.171349 -0.514048,0.04284 -1.070933,0.04284 z m 3.862569,8.181923 V 72.816862 h 5.35466 v 2.634494 h 0.79249 q 0.81391,-1.477887 1.73491,-2.248959 0.94242,-0.771071 2.80584,-0.771071 2.48456,0 3.81252,1.520724 1.32796,1.520724 1.49931,5.07622 0.0428,1.135189 0.0643,2.891518 0.0428,1.73491 0.0428,3.662589 0,1.927678 -0.0428,3.726845 -0.0214,1.777748 -0.0643,2.998611 -0.17135,3.534077 -1.64924,5.07622 -1.45647,1.520724 -3.94103,1.520724 -1.37079,0 -2.37747,-0.685397 -0.98526,-0.706815 -1.88484,-2.334633 h -0.79249 V 107.0867 Z m 8.26759,-12.101536 q 1.04952,0 1.69208,-0.535466 0.64256,-0.535466 0.68539,-1.692073 0.0857,-1.584981 0.12852,-3.405566 0.0428,-1.820585 0.0428,-3.705426 0,-1.90626 -0.0428,-3.705427 -0.0428,-1.820585 -0.12852,-3.362728 -0.0428,-1.156607 -0.51404,-1.692073 -0.47121,-0.535466 -1.52073,-0.535466 -0.96384,0 -1.92768,0.556885 -0.94242,0.535466 -1.32795,1.520724 v 14.479007 q 0.44979,1.11377 1.13519,1.606399 0.68539,0.47121 1.77774,0.47121 z m 11.28759,3.534077 V 64.249402 H 127.56 v 34.269839 z m 13.32962,0.32128 q -2.61307,0 -3.85535,-1.327956 -1.22087,-1.327956 -1.49931,-4.433661 -0.0214,-0.449791 -0.0214,-1.006676 0,-0.556885 0.0214,-0.985258 0.12851,-1.670655 0.72823,-2.891518 0.59973,-1.220863 1.84201,-2.163283 1.2637,-0.96384 3.36273,-1.820586 1.09235,-0.47121 2.14186,-0.813908 1.04952,-0.342699 2.16329,-0.663978 v -3.962451 q 0,-1.135188 -0.4498,-1.713492 -0.44979,-0.599722 -1.75633,-0.599722 -1.09235,0 -1.56356,0.492629 -0.47121,0.47121 -0.53546,1.649236 -0.0214,0.364117 -0.0428,1.092351 0,0.728234 0,1.477887 0.0214,0.749653 0.0428,1.199444 h -5.18332 q -0.0214,-0.428373 -0.0428,-1.41363 -0.0214,-1.006677 0,-1.75633 0.0857,-2.37747 0.8139,-3.855357 0.74966,-1.499305 2.35606,-2.206121 1.6064,-0.706815 4.30514,-0.706815 2.82727,0 4.43367,0.79249 1.60639,0.771071 2.27037,2.441726 0.66398,1.670655 0.66398,4.347986 l -0.0214,18.505713 h -5.35466 v -2.634494 h -0.70682 q -0.68539,1.499306 -1.58498,2.22754 -0.89958,0.728234 -2.5274,0.728234 z m 2.16329,-3.855357 q 0.921,0 1.6064,-0.514047 0.68539,-0.535467 1.09235,-1.43505 v -6.725456 q -0.77107,0.192768 -1.49931,0.47121 -0.72823,0.278443 -1.43505,0.685397 -1.13519,0.621141 -1.54214,1.542143 -0.40696,0.921002 -0.47121,2.077609 -0.0214,0.406954 -0.0214,0.79249 0.0214,0.385536 0.0428,0.771071 0.10709,1.135189 0.66398,1.734911 0.5783,0.599722 1.56356,0.599722 z m 20.86177,3.919613 q -4.32657,0 -6.16857,-1.606399 -1.842,-1.606398 -1.842,-5.290406 V 76.886405 h -2.22754 v -4.069543 h 2.27037 v -7.282341 h 5.37608 v 7.282341 h 4.17664 v 4.069543 h -4.24089 v 15.721289 q 0,1.2637 0.49263,1.777748 0.51405,0.514048 2.1847,0.514048 0.53547,0 0.98526,-0.02142 0.44979,-0.02142 1.00667,-0.04284 v 3.855357 q -0.42837,0.128511 -0.94242,0.171349 -0.51404,0.04284 -1.07093,0.04284 z m 11.93018,0 q -3.94103,0 -5.7402,-1.606399 -1.77774,-1.606398 -1.99193,-5.290406 -0.0428,-1.028095 -0.0643,-2.677331 -0.0214,-1.670655 -0.0214,-3.555496 0,-1.884841 0.0214,-3.576915 0.0214,-1.713492 0.0643,-2.805843 0.25702,-3.748264 2.03477,-5.354662 1.77775,-1.606399 5.63311,-1.606399 3.83394,0 5.56885,1.58498 1.73491,1.563562 1.90626,5.183313 0.0214,0.514048 0.0214,1.734911 0.0214,1.220863 0,2.741587 0,1.499306 -0.0643,2.912936 H 168.027 q 0,1.499306 0.0214,2.998611 0.0428,1.477887 0.0642,2.977193 0.0428,1.2637 0.57831,1.799166 0.55688,0.514048 1.79916,0.514048 1.11377,0 1.6064,-0.514048 0.49263,-0.535466 0.55689,-1.799166 0.0428,-0.599722 0.0428,-1.563562 0,-0.963839 -0.0428,-2.120446 h 5.20473 q 0.0428,0.449792 0.0643,1.413631 0.0214,0.963839 -0.0214,1.713492 -0.17135,3.684008 -1.88485,5.290406 -1.71349,1.606399 -5.52601,1.606399 z M 168.02706,82.84079 h 4.66926 q 0.0214,-0.942421 0,-1.820585 0,-0.878165 -0.0214,-1.520725 0,-0.642559 -0.0214,-0.899583 -0.0643,-1.135188 -0.57831,-1.627817 -0.51404,-0.514048 -1.64923,-0.514048 -1.19945,0 -1.73491,0.514048 -0.53547,0.492629 -0.57831,1.627817 -0.0214,1.092351 -0.0428,2.141865 0,1.049514 -0.0428,2.099028 z"
       id="text1"
       style="font-weight:bold;font-size:42.8373px;font-family:'Big Shoulders';-inkscape-font-specification:'Big Shoulders Bold';stroke-width:0.44622"
       aria-label="Fastplate" /><g
       id="g1"
       transform="matrix(0.26458333,0,0,0.25963894,211.58339,-66.745525)"><g
         id="LWPOLYLINE_25_"
         transform="matrix(1.1647252,0,0,1.0807888,-1347.4355,593.13506)">
	<g
   id="XMLID_2_">
		<g
   id="g35">
			<path
   d="m 1049.7,90.6 v 207.2 c 0,12.2 -9.8,22 -22,22 h -418 c -12.2,0 -22,-9.8 -22,-22 V 90.6 c 0,-12.2 9.8,-22 22,-22 h 418 c 12.2,0 22,9.9 22,22 z m -48.9,103.6 -85.8,-92 h -60.8 l 85.8,92 -85.8,92 H 915 Z m -102.1,0 -85.8,-92 h -60.8 l 85.8,92 -85.8,92 H 813 Z m -102,0 -85.8,-92 h -60.8 l 85.8,92 -85.8,92 h 60.8 z"
   id="path34" />
		</g>
		<g
   id="g36">
		</g>
	</g>
</g></g></g><style
     type="text/css"
     id="style1">
	.st0{font-family:'ArialMT';}
	.st1{font-size:63.5593px;}
</style></svg>
